<svg width="16" height="16" viewBox="0 0 16 16" xmlns="http://www.w3.org/2000/svg">
  <path d="M4 1.5h5.3L13 5.2V13a1.5 1.5 0 0 1-1.5 1.5h-7A1.5 1.5 0 0 1 3 13V3A1.5 1.5 0 0 1 4.5 1.5Z" fill="none" stroke="#C5C5C5" stroke-width="1.2" stroke-linejoin="round"/>
  <path d="M9 1.8V5h3.2" fill="none" stroke="#C5C5C5" stroke-width="1.2" stroke-linejoin="round"/>
  <path d="m8.9 6.2 1.1-1.1 1.8 1.8-1.1 1.1.6.6c.2.2.2.5 0 .7l-.7.7-3.1-3.1.7-.7c.2-.2.5-.2.7 0l.6.6Z" fill="#C5C5C5"/>
  <path d="m5.2 10.4 2.5-2.5 1.4 1.4-2.5 2.5-1.9.5.5-1.9Z" fill="#C5C5C5"/>
</svg>
